<svg version="1.1" id="Layer_1" xmlns="http://www.w3.org/2000/svg" xmlns:xlink="http://www.w3.org/1999/xlink" x="0px" y="0px"
	 width="194.25px" height="163px" viewBox="0 0 194.25 163" enable-background="new 0 0 194.25 163" xml:space="preserve">
	<path fill="#636769" d="M61.331,69.074l23.759,3.698c2.338,0.365,3.324-1.037,2.19-3.114L75.766,48.55
		c-1.132-2.077-1.184-5.505-0.117-7.616l10.86-21.452c1.068-2.11,0.04-3.482-2.286-3.047l-23.631,4.43
		c-2.326,0.436-5.6-0.573-7.279-2.242L36.267,1.665c-1.678-1.669-3.299-1.115-3.603,1.232l-3.09,23.844
		c-0.304,2.347-2.275,5.15-4.381,6.229l-21.4,10.975c-2.106,1.078-2.08,2.792,0.058,3.807l21.726,10.307
		c2.138,1.016,4.194,3.756,4.57,6.093l3.824,23.739c0.376,2.336,2.014,2.84,3.638,1.121l16.516-17.473
		C55.749,69.82,58.993,68.71,61.331,69.074z"/>
	<path fill="#636769" d="M64.909,79.343c-0.605-1.312-2.157-1.884-3.467-1.281c-1.311,0.604-1.885,2.156-1.281,3.467
		c11.434,24.831,32.718,46.334,59.935,60.551c22.405,11.706,47.725,18.193,74.154,19.137v-5.23
		C136.264,153.877,85.72,124.54,64.909,79.343z"/>
</svg>
